<?xml version="1.0" standalone="no"?>
<!DOCTYPE svg PUBLIC "-//W3C//DTD SVG 20010904//EN"
 "http://www.w3.org/TR/2001/REC-SVG-20010904/DTD/svg10.dtd">
<svg version="1.0" xmlns="http://www.w3.org/2000/svg"
 width="512.000000pt" height="512.000000pt" viewBox="0 0 512.000000 512.000000"
 preserveAspectRatio="xMidYMid meet">
<metadata>
Created by potrace 1.11, written by Peter Selinger 2001-2013
</metadata>
<g transform="translate(0.000000,512.000000) scale(0.100000,-0.100000)"
fill="#000000" stroke="none">
<path d="M2379 5116 c-2 -2 -40 -6 -83 -10 -44 -4 -82 -8 -85 -10 -3 -2 -31
-7 -61 -11 -107 -13 -295 -66 -405 -114 -320 -139 -543 -357 -660 -646 -33
-83 -69 -214 -79 -290 -3 -22 -8 -51 -11 -65 -3 -14 -6 -92 -6 -175 -1 -167
16 -299 56 -440 14 -49 27 -97 30 -106 6 -30 112 -283 158 -379 178 -376 233
-538 244 -715 9 -158 -28 -268 -121 -361 -144 -143 -435 -198 -651 -124 -204
70 -365 244 -401 433 -12 64 -11 212 2 257 43 146 244 200 371 100 32 -25 55
-25 76 -2 24 26 21 62 -9 115 -55 99 -161 160 -286 164 -208 6 -384 -156 -438
-403 -29 -133 -18 -371 24 -529 109 -414 433 -692 941 -810 79 -19 82 -19 185
-35 139 -21 135 -11 41 -100 -243 -232 -488 -330 -703 -280 -83 19 -188 74
-242 127 -43 41 -119 146 -139 193 -15 33 -43 73 -50 71 -4 0 -14 -1 -22 -1
-29 0 -47 -45 -46 -122 3 -184 37 -299 124 -413 161 -211 599 -298 1007 -199
315 77 617 245 845 471 91 90 105 106 196 223 37 47 77 97 90 111 42 46 138
118 167 125 15 4 33 11 40 17 6 5 40 9 75 9 135 0 234 -67 391 -262 216 -268
407 -426 684 -565 60 -30 117 -55 125 -55 9 0 18 -4 21 -9 3 -5 16 -11 28 -14
13 -3 61 -16 108 -30 386 -115 816 -63 1022 122 111 100 167 234 176 423 5
127 -4 159 -48 171 -23 6 -19 11 -96 -122 -113 -194 -268 -283 -489 -283 -166
1 -376 110 -577 300 -76 73 -76 75 12 86 91 12 123 17 160 26 19 5 50 12 69
15 19 3 84 22 145 42 444 143 706 407 800 803 24 104 27 127 30 275 5 169 -9
247 -64 360 -54 112 -128 187 -229 233 -46 21 -71 26 -146 26 -82 1 -96 -2
-155 -31 -72 -35 -117 -77 -149 -138 -25 -47 -27 -88 -5 -109 22 -23 44 -20
89 11 56 38 116 52 179 41 85 -16 145 -60 174 -128 31 -74 19 -275 -23 -375
-90 -213 -357 -375 -620 -375 -393 0 -586 311 -464 747 29 105 83 238 169 418
39 83 89 193 111 245 22 52 44 104 49 115 17 38 58 181 74 258 33 158 38 421
12 567 -3 14 -10 54 -16 90 -26 147 -127 390 -196 473 -13 16 -24 32 -24 37 0
5 -44 54 -97 108 -185 188 -413 309 -711 376 -59 13 -132 27 -162 31 -30 4
-64 9 -75 12 -23 5 -451 13 -456 9z m-135 -1400 c99 -64 144 -245 98 -392 -32
-103 -105 -174 -179 -174 -34 0 -94 35 -123 72 -49 63 -65 117 -65 224 0 99 3
111 43 189 48 94 151 131 226 81z m772 8 c82 -39 129 -143 129 -284 0 -87 -3
-101 -33 -163 -53 -108 -130 -147 -216 -109 -143 64 -184 350 -70 499 53 70
120 90 190 57z"/>
</g>
</svg>
